<svg width="60" height="54" xmlns="http://www.w3.org/2000/svg"><g fill-rule="nonzero" fill="none"><path d="M21.486 18.642c4.629-4.629 12.133-4.629 16.762 0 4.628 4.628 4.628 12.133 0 16.761-4.629 4.629-12.133 4.629-16.762 0-4.628-4.628-4.628-12.133 0-16.761" fill="#FFCD05"/><path d="M24.839 21.995A7.111 7.111 0 1134.895 32.05 7.111 7.111 0 0124.84 21.995zM4.977 23.467a3.556 3.556 0 100 7.111 3.556 3.556 0 000-7.11z" fill="#FFF"/><path d="M54.756 23.467a3.556 3.556 0 100 7.111 3.556 3.556 0 000-7.11zM17.448 45.03a3.556 3.556 0 100 7.112 3.556 3.556 0 000-7.112z" fill="#FFCD05"/><path d="M42.284 1.903a3.556 3.556 0 100 7.112 3.556 3.556 0 000-7.112zM42.32 45.05a3.556 3.556 0 100 7.11 3.556 3.556 0 000-7.11z" fill="#FFF"/><path d="M17.413 1.885a3.556 3.556 0 100 7.112 3.556 3.556 0 000-7.112z" fill="#FFCD05"/><path d="M29.867 40.297a13.158 13.158 0 01-9.387-3.887c-5.167-5.168-5.167-13.607 0-18.774a13.158 13.158 0 019.387-3.888c3.556 0 6.874 1.375 9.387 3.888 5.168 5.167 5.168 13.606 0 18.774a13.158 13.158 0 01-9.387 3.887zm0-23.704c-2.797 0-5.404 1.09-7.395 3.034a10.415 10.415 0 000 14.744c1.99 1.991 4.598 3.082 7.395 3.082 2.797 0 5.405-1.09 7.396-3.035a10.415 10.415 0 000-14.744c-1.991-1.99-4.599-3.081-7.396-3.081zm28.398 6.922c-1.944-1.944-5.12-1.944-7.017 0-.616.616-1.043 1.327-1.232 2.086H46.46c-.806 0-1.422.616-1.422 1.422 0 .806.616 1.422 1.422 1.422h3.508c.237.759.664 1.47 1.233 2.086a4.997 4.997 0 003.508 1.47c1.28 0 2.56-.474 3.508-1.47a4.908 4.908 0 00.048-7.016zm-1.991 5.025a2.118 2.118 0 01-3.034 0 2.118 2.118 0 010-3.034 2.118 2.118 0 013.034 0c.806.853.806 2.18 0 3.034zM43.616 43.758a4.83 4.83 0 00-2.466-.048l-1.754-3.034c-.379-.663-1.28-.9-1.943-.521-.664.38-.901 1.28-.522 1.944l1.754 3.034c-.569.616-.995 1.327-1.185 2.133-.711 2.655.853 5.405 3.508 6.116.427.095.854.19 1.28.19.854 0 1.707-.238 2.465-.664a4.988 4.988 0 002.323-3.034 4.927 4.927 0 00-3.46-6.116zm.758 5.357c-.142.569-.521.996-.995 1.28-.474.285-1.09.38-1.612.19-.57-.143-.996-.522-1.28-.996-.285-.474-.38-1.09-.19-1.612.142-.569.522-.995.996-1.28.474-.284 1.09-.379 1.612-.19a2.173 2.173 0 011.47 2.608zM21.05 8.913c.57-.617.996-1.328 1.186-2.134.71-2.654-.854-5.404-3.509-6.115-1.28-.332-2.607-.19-3.792.474a4.988 4.988 0 00-2.323 3.034c-.712 2.655.853 5.404 3.508 6.116.427.094.853.19 1.28.19.38 0 .758-.048 1.138-.143l1.754 3.034c.284.474.758.711 1.232.711.237 0 .474-.047.712-.19.663-.379.9-1.28.521-1.943l-1.707-3.034zm-4.172-1.375c-1.137-.285-1.801-1.47-1.517-2.608.143-.568.522-.995.996-1.28.474-.284 1.09-.379 1.612-.19.569.143.995.522 1.28.996.284.474.38 1.09.19 1.612-.143.57-.522.996-.996 1.28a2.206 2.206 0 01-1.565.19zm-3.603 20.907c.806 0 1.423-.616 1.423-1.422 0-.806-.617-1.422-1.423-1.422H9.766a5.531 5.531 0 00-1.232-2.086c-1.944-1.944-5.12-1.944-7.017 0a4.908 4.908 0 00-.047 7.016 4.997 4.997 0 003.508 1.47c1.28 0 2.56-.474 3.508-1.47.616-.616 1.043-1.327 1.233-2.086h3.555zm-6.78.095a2.118 2.118 0 01-3.033 0 2.118 2.118 0 010-3.034 2.118 2.118 0 013.034 0c.806.853.806 2.18 0 3.034zm30.959-14.65c.237.143.474.19.71.19.475 0 .949-.237 1.233-.71l1.754-3.035c.38.095.759.142 1.138.142.427 0 .854-.047 1.28-.19 2.655-.71 4.22-3.46 3.508-6.115a4.988 4.988 0 00-2.323-3.034 4.824 4.824 0 00-3.792-.474c-2.655.71-4.22 3.46-3.508 6.115.237.806.616 1.517 1.185 2.134l-1.754 3.034c-.332.664-.095 1.564.569 1.944zm3.034-9.481c.284-.474.758-.853 1.28-.996.19-.047.379-.094.569-.094.379 0 .71.094 1.043.284.474.284.853.759.995 1.28.285 1.138-.38 2.323-1.517 2.608-.521.19-1.138.094-1.612-.19-.474-.285-.853-.759-.995-1.28a2.111 2.111 0 01.237-1.612zM22.282 40.155c-.664-.38-1.565-.142-1.944.521l-1.754 3.034a4.84 4.84 0 00-2.465.048c-2.655.711-4.22 3.46-3.508 6.116a4.988 4.988 0 002.323 3.034 5.057 5.057 0 002.465.663c.427 0 .853-.047 1.28-.19 2.655-.71 4.22-3.46 3.508-6.115-.237-.806-.616-1.517-1.185-2.133l1.754-3.034a1.395 1.395 0 00-.474-1.944zm-3.034 9.482c-.285.474-.759.853-1.28.995-.57.142-1.138.095-1.612-.19-.474-.284-.853-.758-.996-1.28-.284-1.137.38-2.323 1.517-2.607.19-.047.38-.095.57-.095.379 0 .71.095 1.042.285.474.284.854.758.996 1.28a2.111 2.111 0 01-.237 1.612z" fill="#444B54"/></g></svg>