<svg width="60" height="59" xmlns="http://www.w3.org/2000/svg"><g fill-rule="nonzero" fill="none"><path fill="#FFF" d="M25.152 38.945l6.542-6.643L55.477 57.81l-13.996.102zM57.505 19.777H37.17V6.592h20.335l-5.02 6.593z"/><path fill="#FFCD05" d="M38.692 19.777h18.813l-5.02-6.592 5.02-6.593H38.692z"/><path fill="#FFF" d="M32.1 1.521h15.263v13.185H32.1z"/><path fill="#FFCD05" d="M1.724 57.353l20.74-20.335L41.43 57.353"/><path d="M41.126 58.824c-.457 0-.913-.203-1.217-.609L22.465 39.554 2.992 58.215c-.507.66-1.47.811-2.13.304-.66-.507-.811-1.47-.304-2.13l20.69-20.284c.304-.405.76-.608 1.217-.608.456 0 .912.203 1.217.608l18.66 20.284c.508.66.356 1.623-.303 2.13a1.416 1.416 0 01-.913.305z" fill="#454B54"/><g fill="#454B54"><path d="M41.582 44.168c-.456 0-.913-.152-1.217-.557l-8.468-8.925-.609.862c-.456.659-1.42.811-2.13.355-.71-.457-.811-1.42-.355-2.13l1.826-2.485c.304-.355.76-.66 1.217-.608.456 0 .913.202 1.217.557l9.635 10.497c.507.66.405 1.623-.203 2.13-.304.203-.609.304-.913.304z"/><path d="M54.97 58.722c-.457 0-.913-.203-1.217-.608L35.142 38.032c-.507-.659-.355-1.622.304-2.13.66-.506 1.623-.354 2.13.305l18.61 20.132c.508.659.356 1.622-.304 2.13a1.751 1.751 0 01-.912.253z"/></g><g fill="#454B54"><path d="M48.884 14.706V1.52C48.884.66 48.225 0 47.364 0H32.098c-.862 0-1.52.66-1.52 1.521v30.426c0 .862.658 1.522 1.52 1.522s1.522-.66 1.522-1.522V3.043h12.22v10.142h-8.67c-.863 0-1.522.659-1.522 1.52 0 .863.66 1.522 1.521 1.522h10.193c.862 0 1.521-.659 1.521-1.521z"/><path d="M54.361 13.185l4.412-5.68c.355-.507.405-1.065.152-1.623a1.495 1.495 0 00-1.37-.862h-5.07c-.862 0-1.522.66-1.522 1.522s.66 1.52 1.522 1.52h1.977l-3.194 4.16a1.598 1.598 0 000 1.875l3.194 4.159H39.807c-.862 0-1.521.659-1.521 1.52 0 .863.66 1.522 1.521 1.522h17.749c.558 0 1.065-.253 1.318-.811.254-.558.203-1.167-.152-1.623l-4.36-5.68z"/></g></g></svg>