<svg width="60" height="51" xmlns="http://www.w3.org/2000/svg"><g fill-rule="nonzero" fill="none"><path d="M11.597 14.648H4.46A4.473 4.473 0 000 19.108v9.813c0 1.65 1.16 3.033 2.676 3.434v14.407a2.684 2.684 0 002.676 2.676h5.353a2.684 2.684 0 002.676-2.676V32.489h2.676V19.108a4.473 4.473 0 00-4.46-4.46zM8.029 3.05a4.46 4.46 0 100 8.92 4.46 4.46 0 000-8.92zm47.297 11.668h-7.137a4.473 4.473 0 00-4.46 4.46v9.813c0 1.65 1.16 3.033 2.676 3.434V46.7c0 1.472 1.115 2.766 2.587 2.766 1.516.044 4.014.044 5.53 0 1.473-.045 2.588-1.338 2.588-2.766V32.56a2.684 2.684 0 002.676-2.676V19.179a4.473 4.473 0 00-4.46-4.46zM51.757 3.122a4.46 4.46 0 100 8.92 4.46 4.46 0 000-8.92z" fill="#FFCD05"/><path d="M32.596 49.51a2.684 2.684 0 01-2.676-2.677V28.1h5.352v18.733a2.684 2.684 0 01-2.676 2.676z" fill="#FFF"/><path d="M33.488 14.719h-7.137a4.473 4.473 0 00-4.46 4.46V32.56a2.684 2.684 0 012.676 2.676V46.7c0 1.472 1.115 2.766 2.587 2.766a2.676 2.676 0 002.766-2.676V32.56h8.028V19.18a4.473 4.473 0 00-4.46-4.461z" fill="#FFF"/><path d="M32.596 50.847a3.998 3.998 0 01-4.014-4.014V32.56c0-.758.58-1.338 1.338-1.338.758 0 1.338.58 1.338 1.338v14.273c0 .758.58 1.338 1.338 1.338.758 0 1.338-.58 1.338-1.338V32.56c0-.758.58-1.338 1.338-1.338h1.338V19.18a3.103 3.103 0 00-3.122-3.122h-7.137a3.103 3.103 0 00-3.122 3.122V32.56c0 .758-.58 1.338-1.338 1.338-.758 0-1.338-.58-1.338-1.338V19.18a5.787 5.787 0 015.798-5.8h7.137a5.787 5.787 0 015.798 5.8v13.38c0 .758-.58 1.338-1.338 1.338H36.61v12.935a3.998 3.998 0 01-4.014 4.014z" fill="#444B54"/><path d="M29.92 1.338a4.46 4.46 0 100 8.92 4.46 4.46 0 000-8.92z" fill="#FFF"/><path d="M29.92 11.597a5.787 5.787 0 01-5.799-5.799A5.787 5.787 0 0129.92 0a5.787 5.787 0 015.798 5.798 5.787 5.787 0 01-5.798 5.799zm0-8.92a3.103 3.103 0 00-3.122 3.121 3.103 3.103 0 003.122 3.123 3.103 3.103 0 003.122-3.123 3.103 3.103 0 00-3.122-3.122zM27.244 50.847a3.998 3.998 0 01-4.015-4.014V35.236c0-.758.58-1.338 1.338-1.338.759 0 1.338.58 1.338 1.338v11.597c0 .758.58 1.338 1.339 1.338.758 0 1.338-.58 1.338-1.338 0-.758.58-1.338 1.338-1.338.758 0 1.338.58 1.338 1.338a3.998 3.998 0 01-4.014 4.014z" fill="#444B54"/></g></svg>